HIERARCHY
ROOT Hips
{
	OFFSET 52.846802 -4.767665 91.633698
	CHANNELS 6 Xposition Yposition Zposition Xrotation Yrotation Zrotation
	JOINT spine
	{
		OFFSET 0.000000 -0.393702 6.846367
		CHANNELS 3 Xrotation Yrotation Zrotation
		JOINT spine1
		{
			OFFSET 0.000000 -0.000001 9.496208
			CHANNELS 3 Xrotation Yrotation Zrotation
			JOINT spine2
			{
				OFFSET 0.000000 -0.000001 9.099091
				CHANNELS 3 Xrotation Yrotation Zrotation
				JOINT Neck
				{
					OFFSET 0.000000 -1.113784 23.361206
					CHANNELS 3 Xrotation Yrotation Zrotation
					JOINT Head
					{
						OFFSET 0.000000 -0.000001 7.058014
						CHANNELS 3 Xrotation Yrotation Zrotation
						End Site
						{
							OFFSET 0.000000 5.634187 17.084396
						}
					}
				}
				JOINT RightShoulder
				{
					OFFSET -3.831360 0.533490 9.826309
					CHANNELS 3 Xrotation Yrotation Zrotation
					JOINT RightArm
					{
						OFFSET 0.000000 -0.000002 12.888092
						CHANNELS 3 Xrotation Yrotation Zrotation
						JOINT RightArmRoll
						{
							OFFSET 0.000000 -0.000001 6.506165
							CHANNELS 3 Xrotation Yrotation Zrotation
							JOINT RightForeArm
							{
								OFFSET 0.000000 -0.000003 18.950104
								CHANNELS 3 Xrotation Yrotation Zrotation
								JOINT RightForeArmRoll
								{
									OFFSET 0.000000 -0.000001 7.300919
									CHANNELS 3 Xrotation Yrotation Zrotation
									JOINT RightHand
									{
										OFFSET 0.000000 -0.000002 14.651398
										CHANNELS 3 Xrotation Yrotation Zrotation
										End Site
										{
											OFFSET 0.000000 0.000000 0.100006
										}
									}
								}
							}
						}
					}
				}
				JOINT LeftShoulder
				{
					OFFSET 3.831360 0.533490 9.826309
					CHANNELS 3 Xrotation Yrotation Zrotation
					JOINT LeftArm
					{
						OFFSET 0.000000 -0.000002 12.888092
						CHANNELS 3 Xrotation Yrotation Zrotation
						JOINT LeftArmRoll
						{
							OFFSET 0.000000 -0.000001 6.506165
							CHANNELS 3 Xrotation Yrotation Zrotation
							JOINT LeftForeArm
							{
								OFFSET 0.000000 -0.000003 18.950104
								CHANNELS 3 Xrotation Yrotation Zrotation
								JOINT LeftForeArmRoll
								{
									OFFSET 0.000000 -0.000001 7.300919
									CHANNELS 3 Xrotation Yrotation Zrotation
									JOINT LeftHand
									{
										OFFSET 0.000000 -0.000002 14.651398
										CHANNELS 3 Xrotation Yrotation Zrotation
										End Site
										{
											OFFSET 0.000000 0.000000 0.100006
										}
									}
								}
							}
						}
					}
				}
			}
		}
	}
	JOINT RightUpLeg
	{
		OFFSET -6.068371 0.933477 -1.112778
		CHANNELS 3 Xrotation Yrotation Zrotation
		JOINT RightUpLegRoll
		{
			OFFSET 0.000000 -0.000003 17.179596
			CHANNELS 3 Xrotation Yrotation Zrotation
			JOINT RightLeg
			{
				OFFSET 0.000000 0.000004 -21.274300
				CHANNELS 3 Xrotation Yrotation Zrotation
				JOINT RightLegRoll
				{
					OFFSET 0.000000 -0.000004 21.343903
					CHANNELS 3 Xrotation Yrotation Zrotation
					JOINT RightFoot
					{
						OFFSET 0.000000 -0.000003 17.765198
						CHANNELS 3 Xrotation Yrotation Zrotation
						JOINT RightToeBase
						{
							OFFSET 0.000000 -0.000002 14.850792
							CHANNELS 3 Xrotation Yrotation Zrotation
							End Site
							{
								OFFSET 0.006294 0.829003 7.192139
							}
						}
					}
				}
			}
		}
	}
	JOINT LeftUpLeg
	{
		OFFSET 6.068371 0.933477 -1.112778
		CHANNELS 3 Xrotation Yrotation Zrotation
		JOINT LeftUpLegRoll
		{
			OFFSET 0.000000 -0.000003 17.179703
			CHANNELS 3 Xrotation Yrotation Zrotation
			JOINT LeftLeg
			{
				OFFSET 0.000000 -0.000003 21.274200
				CHANNELS 3 Xrotation Yrotation Zrotation
				JOINT LeftLegRoll
				{
					OFFSET 0.000000 -0.000004 21.541199
					CHANNELS 3 Xrotation Yrotation Zrotation
					JOINT LeftFoot
					{
						OFFSET 0.000000 -0.000003 17.567902
						CHANNELS 3 Xrotation Yrotation Zrotation
						JOINT LeftToeBase
						{
							OFFSET 0.000000 -0.000002 14.850800
							CHANNELS 3 Xrotation Yrotation Zrotation
							End Site
							{
								OFFSET -0.028210 0.829004 7.192139
							}
						}
					}
				}
			}
		}
	}
}
MOTION
Frames: 7
Frame Time: 0.041667
53.645504 -5.151357 91.608292 -2.541734 0.855800 -5.690652 -1.536745 -0.135986 -0.156272 0.928982 -0.269084 -0.314894 2.574059 -0.273170 -0.311671 24.206957 0.408063 -0.717532 -7.889578 1.224602 -0.741787 13.799342 -73.182499 13.329019 -11.288629 -101.005876 4.340120 0.000001 0.000012 0.000001 19.551833 -9.544509 0.272026 -0.000006 0.000009 -3.000000 -5.000307 -7.998841 0.000167 19.246298 70.366678 -19.778128 -15.071741 104.003687 -10.192678 0.000000 0.000000 0.000002 6.288718 10.723103 -0.123090 -0.000005 -0.000004 3.008370 -5.000232 7.998763 -0.000176 -2.085044 -176.145538 0.932096 -179.999991 0.000005 -1.038006 175.229022 -2.601965 -0.234094 0.000002 -0.000001 0.040853 68.863313 6.900613 2.117976 25.456955 -7.355623 0.000005 3.650367 175.006099 -0.612253 -0.000004 -0.000004 -1.154560 -4.933511 1.637764 0.195926 -0.000002 0.000001 -0.068582 69.314570 -6.893533 -2.092947 25.456964 7.355616 -0.000001 
53.652103 -5.128580 91.607796 -2.543959 0.865117 -5.701184 -1.537751 -0.136113 -0.160872 0.926960 -0.269274 -0.324132 2.572040 -0.273447 -0.320903 24.236950 0.404115 -0.694456 -7.885040 1.240325 -0.719064 13.845661 -73.196979 13.376332 -11.537081 -100.991833 4.145870 0.000001 0.000012 -0.000000 19.497246 -9.509742 0.261177 -0.000006 0.000009 -3.000001 -5.000304 -7.998843 0.000165 19.251754 70.354671 -19.786587 -15.008272 104.025461 -10.286228 0.000001 0.000000 0.000002 6.267794 10.695977 -0.120596 -0.000005 -0.000005 3.008369 -5.000234 7.998763 -0.000177 -2.081683 -176.154527 0.926178 -179.999991 0.000005 -1.038006 175.233612 -2.599994 -0.233719 0.000002 -0.000001 0.040853 68.865737 6.900617 2.117924 25.456959 -7.355621 0.000004 3.649918 174.997124 -0.617809 -0.000005 -0.000004 -1.154590 -4.942483 1.637353 0.195863 -0.000003 0.000001 -0.068581 69.321229 -6.893531 -2.092934 25.456957 7.355614 -0.000000 
53.655502 -5.125058 91.611694 -2.546784 0.874671 -5.711267 -1.538626 -0.136176 -0.165740 0.925209 -0.269332 -0.333921 2.570290 -0.273596 -0.330689 24.266931 0.398663 -0.670567 -7.880421 1.257357 -0.695582 13.894749 -73.212381 13.426456 -11.788944 -100.978111 3.948233 0.000001 0.000013 0.000001 19.441575 -9.475009 0.250360 -0.000006 0.000009 -3.000002 -5.000306 -7.998841 0.000166 19.254004 70.341550 -19.791837 -14.941886 104.048090 -10.383265 0.000000 -0.000000 0.000002 6.247020 10.667951 -0.118053 -0.000006 -0.000006 3.008369 -5.000230 7.998761 -0.000176 -2.077234 -176.163529 0.920422 -179.999991 0.000005 -1.038006 175.238421 -2.597018 -0.234249 0.000002 -0.000001 0.040853 68.868381 6.900631 2.117860 25.456957 -7.355624 0.000005 3.650320 174.987138 -0.623490 -0.000005 -0.000004 -1.154620 -4.951356 1.636763 0.195767 -0.000004 0.000001 -0.068582 69.327882 -6.893527 -2.093017 25.456964 7.355614 -0.000000 
53.661102 -5.157396 91.615692 -2.550054 0.884390 -5.721025 -1.539395 -0.136194 -0.170797 0.923651 -0.269296 -0.344096 2.568730 -0.273657 -0.340863 24.297013 0.392166 -0.646108 -7.875729 1.275301 -0.671574 13.945772 -73.228371 13.478533 -12.043268 -100.964669 3.748156 0.000001 0.000013 0.000002 19.385209 -9.440282 0.239593 -0.000008 0.000009 -3.000000 -5.000304 -7.998841 0.000166 19.253986 70.327637 -19.794792 -14.871212 104.073553 -10.485031 0.000000 -0.000000 0.000002 6.226350 10.639223 -0.115482 -0.000005 -0.000005 3.008369 -5.000233 7.998763 -0.000177 -2.072030 -176.172504 0.914776 -179.999991 0.000005 -1.038006 175.243393 -2.595049 -0.233858 0.000002 -0.000001 0.040853 68.871010 6.900611 2.117994 25.456957 -7.355625 0.000006 3.651325 174.978149 -0.629147 -0.000005 -0.000005 -1.154670 -4.960157 1.636054 0.195650 -0.000003 0.000001 -0.068581 69.334644 -6.893529 -2.092997 25.456962 7.355614 -0.000000 
53.660305 -5.140518 91.613495 -2.553550 0.894204 -5.730593 -1.540116 -0.136186 -0.175960 0.922201 -0.269207 -0.354494 2.567269 -0.273666 -0.351258 24.327097 0.385084 -0.621317 -7.871005 1.293770 -0.647263 13.998001 -73.244783 13.531843 -12.299239 -100.951480 3.546330 0.000001 0.000013 0.000002 19.328358 -9.405559 0.228876 -0.000004 0.000008 -3.000001 -5.000308 -7.998841 0.000165 19.252594 70.313150 -19.796352 -14.799942 104.098981 -10.587759 0.000000 -0.000001 0.000002 6.205748 10.610192 -0.112914 -0.000004 -0.000005 3.008369 -5.000232 7.998762 -0.000176 -2.066387 -176.181492 0.909186 -179.999991 0.000005 -1.038006 175.248461 -2.593066 -0.234461 0.000002 -0.000001 0.040853 68.873749 6.900596 2.117920 25.456957 -7.355623 0.000004 3.652676 174.968191 -0.634895 -0.000005 -0.000004 -1.154720 -4.968929 1.635275 0.195521 -0.000003 0.000001 -0.068582 69.341419 -6.893530 -2.092977 25.456959 7.355616 0.000000 
53.664703 -5.118098 91.613289 -2.557109 0.904044 -5.740127 -1.540814 -0.136172 -0.181150 0.920779 -0.269104 -0.364945 2.565849 -0.273662 -0.361707 24.357170 0.377875 -0.596437 -7.866267 1.312378 -0.622878 14.050524 -73.261155 13.585457 -12.557090 -100.937540 3.342684 0.000001 0.000013 -0.000001 19.271418 -9.370826 0.218211 -0.000007 0.000009 -2.999999 -5.000305 -7.998841 0.000165 19.250873 70.298581 -19.797604 -14.727778 104.125387 -10.691410 0.000000 0.000000 0.000002 6.185175 10.581157 -0.110381 -0.000005 -0.000005 3.008369 -5.000232 7.998763 -0.000176 -2.060630 -176.191464 0.903659 -179.999991 0.000005 -1.038006 175.253515 -2.591097 -0.234066 0.000002 -0.000001 0.040852 68.876386 6.900609 2.117959 25.456953 -7.355619 0.000003 3.654103 174.959216 -0.640585 -0.000005 -0.000005 -1.154769 -4.977692 1.634476 0.195388 -0.000003 0.000001 -0.068582 69.348181 -6.893527 -2.092955 25.456960 7.355615 -0.000000 
53.665203 -5.119017 91.615990 -2.560554 0.913837 -5.749734 -1.541544 -0.136170 -0.186286 0.919303 -0.269027 -0.375286 2.564370 -0.273684 -0.372048 24.387250 0.370997 -0.571713 -7.861547 1.330729 -0.598649 14.102697 -73.277445 13.638720 -12.813776 -100.924760 3.140101 0.000001 0.000012 0.000001 19.214707 -9.336077 0.207634 -0.000006 0.000009 -3.000001 -5.000304 -7.998842 0.000164 19.249833 70.284265 -19.799533 -14.657311 104.150877 -10.793143 0.000001 0.000000 0.000003 6.164578 10.552220 -0.107863 -0.000005 -0.000004 3.008370 -5.000231 7.998762 -0.000177 -2.055097 -176.200425 0.898048 -179.999991 0.000005 -1.038006 175.258570 -2.589116 -0.233672 0.000002 -0.000001 0.040852 68.879131 6.900593 2.117986 25.456957 -7.355624 0.000005 3.655374 174.949230 -0.646329 -0.000005 -0.000004 -1.154819 -4.986472 1.633706 0.195261 -0.000003 0.000001 -0.068582 69.354943 -6.893525 -2.093034 25.456962 7.355614 0.000000 
